<svg id="visual" viewBox="0 0 960 540" width="960" height="540" xmlns="http://www.w3.org/2000/svg" xmlns:xlink="http://www.w3.org/1999/xlink" version="1.1"><path d="M0 39L480 39L960 44L960 0L480 0L0 0Z" fill="#d6e0dd"></path><path d="M0 82L480 82L960 77L960 42L480 37L0 37Z" fill="#c5ddd5"></path><path d="M0 114L480 131L960 131L960 75L480 80L0 80Z" fill="#b4d9cc"></path><path d="M0 190L480 282L960 222L960 129L480 129L0 112Z" fill="#a3d5c2"></path><path d="M0 233L480 330L960 266L960 220L480 280L0 188Z" fill="#93d1b7"></path><path d="M0 260L480 363L960 298L960 264L480 328L0 231Z" fill="#83cdab"></path><path d="M0 417L480 444L960 471L960 296L480 361L0 258Z" fill="#74c89f"></path><path d="M0 465L480 465L960 503L960 469L480 442L0 415Z" fill="#65c491"></path><path d="M0 541L480 541L960 541L960 501L480 463L0 463Z" fill="#56bf83"></path></svg>